<?xml version="1.0" encoding="iso-8859-1"?>
<!-- Generator: Adobe Illustrator 19.0.0, SVG Export Plug-In . SVG Version: 6.00 Build 0)  -->
<svg version="1.1" id="Capa_1" xmlns="http://www.w3.org/2000/svg" xmlns:xlink="http://www.w3.org/1999/xlink" x="0px" y="0px"
	 viewBox="0 0 464 464" style="enable-background:new 0 0 464 464;" xml:space="preserve">
<g>
	<g>
		<path d="M280.008,264c-13.232,0-24,10.768-24,24s10.768,24,24,24c13.232,0,24-10.768,24-24S293.24,264,280.008,264z M280.008,296
			c-4.408,0-8-3.592-8-8c0-4.408,3.592-8,8-8c4.408,0,8,3.592,8,8C288.008,292.408,284.416,296,280.008,296z"/>
	</g>
</g>
<g>
	<g>
		<path d="M224.008,192c-13.232,0-24,10.768-24,24s10.768,24,24,24c13.232,0,24-10.768,24-24S237.24,192,224.008,192z M224.008,224
			c-4.408,0-8-3.592-8-8s3.592-8,8-8c4.408,0,8,3.592,8,8S228.416,224,224.008,224z"/>
	</g>
</g>
<g>
	<g>
		<rect x="167.976" y="296" width="16" height="16"/>
	</g>
</g>
<g>
	<g>
		<rect x="215.976" y="264" width="16" height="16"/>
	</g>
</g>
<g>
	<g>
		<rect x="231.976" y="136" width="16" height="16"/>
	</g>
</g>
<g>
	<g>
		<path d="M402.76,398.576l-15.048-28.4l-107.736-204.16V48h0.032c13.232,0,24-10.768,24-24s-10.768-24-24-24h-96
			c-13.232,0-24,10.768-24,24c0,13.224,10.752,23.976,23.968,24v118.024L77.04,368.712l-15.8,29.872
			c-7.368,13.96-6.904,30.352,1.24,43.856C70.624,455.944,84.888,464,100.648,464h262.72c15.752,0,30.016-8.056,38.16-21.552
			C409.664,428.944,410.128,412.544,402.76,398.576z M176.008,24c0-4.408,3.592-8,8-8h96c4.408,0,8,3.592,8,8s-3.592,8-8,8h-0.032
			h-95.968C179.6,32,176.008,28.408,176.008,24z M199.976,169.984V48h64v121.984L369.92,370.752
			c-5.504,5.048-14.976,4.896-20.264-0.408c-11.504-11.48-31.832-11.472-43.312,0c-5.344,5.36-14.944,5.456-20.416,0.264
			l-0.144-0.08c0.408-0.96,0.912-1.888,1.192-2.88c2.776-9.544,0.144-19.888-6.92-27.064l-4.48-4.48
			c-5.224-5.232-12.152-8.104-19.52-8.104c-0.024,0-0.048,0-0.072,0c-7.352,0.016-14.256,2.904-19.376,8.08l-4.56,4.52l-4.472-4.504
			c-5.224-5.224-12.152-8.096-19.52-8.096c-0.024,0-0.048,0-0.072,0c-7.352,0.016-14.256,2.904-19.344,8.048l-4.576,4.504
			c-8.128,8.04-10.048,20.072-5.744,30.104l-0.176-0.112c-5.48,5.256-15.112,5.168-20.48-0.208c-11.496-11.48-31.84-11.48-43.312,0
			c-5.568,5.568-14.552,5.704-20.288,0.4L199.976,169.984z M271.608,363.192l-0.016,0.072c-0.384,1.352-1.152,2.704-2.216,3.92
			l-37.36,37.416l-36.768-36.848c-0.256-0.28-0.528-0.552-0.816-0.832c-3.552-4.448-3.2-10.96,0.864-14.976l4.64-4.56
			c2.152-2.176,5.024-3.376,8.096-3.384c0.008,0,0.016,0,0.032,0c3.088,0,6.008,1.216,8.184,3.392l15.72,15.848l15.968-15.848
			c2.152-2.176,5.024-3.376,8.096-3.384c3.296,0.216,6.032,1.2,8.24,3.416l4.432,4.44
			C271.664,354.856,272.776,359.2,271.608,363.192z M387.824,434.184c-5.216,8.648-14.36,13.816-24.456,13.816h-262.72
			c-10.096,0-19.24-5.168-24.456-13.824c-5.224-8.656-5.512-19.168-0.792-28.12l11.08-20.944l0.024-0.056
			c5.096,3.568,11.128,5.536,17.504,5.536c8.2,0,15.888-3.176,21.656-8.944c5.432-5.44,15.24-5.44,20.688,0
			c10.936,10.944,29.84,11.336,41.568,1.384l44.088,44.2l44.136-44.144c11.696,9.888,30.576,9.504,41.52-1.44
			c5.432-5.44,15.24-5.44,20.688,0c10.192,10.2,27.352,11.296,39.128,3.36l0.048,0.104l11.08,20.936
			C393.336,415.008,393.04,425.52,387.824,434.184z"/>
	</g>
</g>
<g>
</g>
<g>
</g>
<g>
</g>
<g>
</g>
<g>
</g>
<g>
</g>
<g>
</g>
<g>
</g>
<g>
</g>
<g>
</g>
<g>
</g>
<g>
</g>
<g>
</g>
<g>
</g>
<g>
</g>
</svg>
